<svg xmlns="http://www.w3.org/2000/svg" xmlns:xlink="http://www.w3.org/1999/xlink" width="500" zoomAndPan="magnify" viewBox="0 0 375 374.999991" height="500" preserveAspectRatio="xMidYMid meet" version="1.0"><defs><g/><clipPath id="1dad893885"><path d="M 186.335938 121.320312 L 324 121.320312 L 324 192.570312 L 186.335938 192.570312 Z M 186.335938 121.320312 " clip-rule="nonzero"/></clipPath><clipPath id="6c6caf5fac"><path d="M 258.539062 162.277344 L 267.855469 162.277344 L 267.855469 186.222656 L 258.539062 186.222656 Z M 258.539062 162.277344 " clip-rule="nonzero"/></clipPath><clipPath id="cd31df7596"><path d="M 250.746094 172 L 259.679688 172 L 259.679688 187.496094 L 250.746094 187.496094 Z M 250.746094 172 " clip-rule="nonzero"/></clipPath><clipPath id="e70d908532"><path d="M 242.355469 162.277344 L 253 162.277344 L 253 187 L 242.355469 187 Z M 242.355469 162.277344 " clip-rule="nonzero"/></clipPath></defs><g clip-path="url(#1dad893885)"><path fill="#ff914d" d="M 215.410156 182.796875 L 235.058594 152.152344 L 241.007812 151.25 L 235.960938 168.558594 L 254.347656 140.253906 L 255.15625 153.054688 L 258.3125 146.175781 L 269.128906 155.9375 L 267.6875 146.175781 L 281.566406 162.246094 L 270.933594 176.308594 L 291.121094 164.050781 L 323.972656 192.707031 L 290.613281 152.117188 L 286.183594 157.949219 L 257.917969 121.324219 L 240.691406 143.71875 L 231.195312 145.75 L 219.695312 160.964844 L 214.566406 155.847656 L 186.335938 192.707031 L 213.066406 167.292969 L 215.410156 182.796875 " fill-opacity="1" fill-rule="nonzero"/></g><path fill="#ffffff" d="M 261.816406 165.6875 C 261.808594 165.691406 261.804688 165.691406 261.804688 165.691406 C 261.808594 165.691406 261.8125 165.691406 261.816406 165.6875 " fill-opacity="1" fill-rule="nonzero"/><path fill="#ffffff" d="M 266.28125 166.023438 C 266.300781 166.023438 266.3125 166.019531 266.3125 166.019531 C 266.300781 166.019531 266.289062 166.023438 266.28125 166.023438 " fill-opacity="1" fill-rule="nonzero"/><g clip-path="url(#6c6caf5fac)"><path fill="#ffffff" d="M 267.894531 170.078125 C 267.882812 169.953125 267.8125 169.835938 267.800781 169.625 C 267.789062 169.417969 267.667969 168.808594 267.613281 168.621094 C 267.613281 168.621094 267.515625 168.324219 267.476562 168.167969 C 267.4375 168.011719 267.398438 167.636719 267.367188 167.5625 C 267.332031 167.492188 267.238281 167.351562 267.246094 167.265625 C 267.253906 167.179688 267.273438 167.039062 267.226562 166.988281 C 267.179688 166.9375 267.164062 166.855469 267.105469 166.707031 C 267.046875 166.558594 266.992188 166.425781 266.90625 166.390625 C 266.820312 166.355469 266.679688 166.304688 266.535156 166.28125 C 266.390625 166.253906 266.253906 166.257812 266.253906 166.257812 C 266.253906 166.257812 266.644531 166.21875 266.683594 165.980469 C 266.683594 165.980469 266.5625 166.152344 266.339844 166.121094 C 266.339844 166.121094 266.449219 166.082031 266.480469 166.054688 C 266.480469 166.054688 266.382812 166.097656 266.222656 166.054688 C 266.222656 166.054688 266.21875 166.03125 266.28125 166.023438 C 266.1875 166.03125 265.929688 166.027344 265.871094 165.835938 C 265.796875 165.601562 265.71875 165.25 265.71875 165.25 C 265.71875 165.25 265.8125 165.359375 265.824219 165.410156 C 265.824219 165.410156 265.871094 165.433594 265.777344 165.25 C 265.683594 165.066406 265.640625 165.058594 265.636719 164.9375 C 265.628906 164.820312 265.574219 164.613281 265.574219 164.613281 C 265.574219 164.613281 265.71875 164.773438 265.714844 164.875 C 265.714844 164.875 265.761719 164.871094 265.628906 164.613281 C 265.5 164.359375 265.417969 164.035156 265.398438 163.910156 C 265.375 163.785156 265.132812 162.90625 264.847656 162.660156 C 264.5625 162.417969 264.234375 162.261719 264.125 162.28125 C 264.019531 162.304688 263.824219 162.296875 263.777344 162.28125 C 263.730469 162.265625 263.335938 162.316406 263.15625 162.640625 C 262.972656 162.964844 262.757812 163.144531 262.558594 163.636719 C 262.359375 164.132812 262.28125 164.78125 262.160156 164.894531 C 262.042969 165.011719 261.925781 165.226562 261.824219 165.226562 C 261.824219 165.226562 262.023438 165.257812 262.09375 165.105469 C 262.09375 165.105469 261.957031 165.640625 261.816406 165.6875 C 261.859375 165.675781 261.984375 165.636719 262.035156 165.535156 C 261.992188 165.652344 261.878906 165.957031 261.863281 165.992188 C 261.84375 166.03125 261.726562 166.136719 261.710938 166.167969 C 261.691406 166.203125 261.460938 166.296875 261.359375 166.414062 C 261.257812 166.527344 261.191406 166.621094 261.179688 166.75 C 261.171875 166.878906 261.210938 166.921875 261.152344 166.988281 C 261.089844 167.050781 261.003906 167.277344 260.992188 167.382812 C 260.984375 167.492188 260.867188 167.78125 260.804688 168.199219 C 260.746094 168.617188 260.730469 168.839844 260.667969 168.957031 C 260.609375 169.070312 260.613281 169.128906 260.613281 169.230469 C 260.613281 169.332031 260.695312 169.328125 260.570312 169.550781 C 260.449219 169.769531 260.308594 170.148438 260.253906 170.421875 C 260.195312 170.695312 260.210938 170.839844 260.144531 170.933594 C 260.082031 171.027344 260.019531 171.308594 259.953125 171.375 C 259.890625 171.4375 259.75 171.535156 259.664062 171.738281 C 259.578125 171.945312 259.542969 172.0625 259.511719 172.113281 C 259.476562 172.167969 259.40625 172.308594 259.390625 172.410156 C 259.375 172.511719 259.332031 173.085938 259.226562 173.117188 C 259.117188 173.144531 258.792969 173.226562 258.757812 173.328125 C 258.71875 173.433594 258.746094 173.652344 258.691406 173.738281 C 258.636719 173.824219 258.648438 173.871094 258.671875 173.925781 C 258.691406 173.980469 258.855469 174.097656 258.789062 174.136719 C 258.726562 174.171875 258.566406 174.332031 258.558594 174.375 C 258.554688 174.417969 258.554688 174.496094 258.558594 174.566406 C 258.566406 174.632812 258.539062 174.890625 258.578125 175.078125 C 258.617188 175.265625 258.53125 175.417969 258.679688 175.417969 C 258.828125 175.417969 259.097656 175.351562 259.117188 175.417969 C 259.140625 175.488281 259.117188 175.679688 259.210938 175.683594 C 259.304688 175.6875 259.351562 175.5 259.347656 175.367188 C 259.34375 175.234375 259.371094 175.191406 259.382812 175.191406 C 259.394531 175.191406 259.441406 175.175781 259.5 175.089844 C 259.5625 175.003906 259.660156 174.851562 259.683594 174.855469 C 259.710938 174.859375 259.9375 175.039062 260.042969 174.894531 C 260.148438 174.75 260.558594 174.359375 260.859375 173.851562 C 261.15625 173.339844 261.386719 172.695312 261.398438 172.449219 C 261.410156 172.199219 261.410156 171.984375 261.484375 171.769531 C 261.554688 171.558594 261.878906 170.671875 261.929688 170.171875 C 261.984375 169.671875 262.019531 169.523438 262.058594 169.480469 C 262.097656 169.4375 262.101562 169.414062 262.105469 169.652344 C 262.109375 169.890625 262.171875 170.578125 262.070312 170.933594 C 261.972656 171.292969 261.957031 171.558594 261.828125 171.902344 C 261.703125 172.246094 261.703125 172.550781 261.667969 172.824219 C 261.632812 173.09375 261.609375 173.460938 261.589844 173.621094 C 261.574219 173.777344 261.550781 174.007812 261.59375 174.027344 C 261.636719 174.050781 261.714844 174.066406 261.714844 174.066406 C 261.714844 174.066406 261.703125 174.375 261.710938 174.511719 C 261.71875 174.648438 261.695312 174.78125 261.695312 174.9375 C 261.695312 175.089844 261.703125 175.394531 261.6875 175.398438 C 261.675781 175.402344 261.644531 175.535156 261.691406 175.5625 C 261.738281 175.59375 261.777344 175.691406 261.792969 175.746094 C 261.8125 175.800781 261.859375 176.132812 261.894531 176.230469 C 261.925781 176.332031 261.90625 176.382812 261.929688 176.402344 C 261.957031 176.425781 261.976562 176.46875 262.003906 176.539062 C 262.03125 176.613281 262.136719 177.085938 262.1875 177.480469 C 262.238281 177.878906 262.296875 178.226562 262.320312 178.417969 C 262.339844 178.609375 262.335938 178.742188 262.371094 178.796875 C 262.40625 178.851562 262.410156 178.988281 262.390625 179.039062 C 262.371094 179.089844 262.328125 179.148438 262.34375 179.214844 C 262.359375 179.285156 262.425781 179.328125 262.386719 179.371094 C 262.347656 179.417969 262.269531 179.507812 262.308594 179.566406 C 262.347656 179.621094 262.386719 179.777344 262.367188 179.855469 C 262.351562 179.933594 262.324219 179.941406 262.351562 180.5625 C 262.382812 181.183594 262.53125 182.179688 262.527344 182.289062 C 262.523438 182.398438 262.550781 182.734375 262.558594 182.851562 C 262.566406 182.964844 262.773438 183.328125 262.746094 183.433594 C 262.714844 183.542969 262.664062 183.816406 262.691406 183.914062 C 262.714844 184.011719 262.828125 184.386719 262.804688 184.546875 C 262.785156 184.710938 262.722656 185.167969 262.679688 185.304688 C 262.640625 185.441406 262.609375 185.910156 262.855469 186.0625 C 263.101562 186.210938 263.648438 186.214844 263.8125 186.195312 C 263.972656 186.179688 264.042969 185.886719 264.046875 185.765625 C 264.050781 185.648438 264.09375 185.34375 263.988281 185.152344 C 263.886719 184.960938 263.839844 184.472656 263.867188 184.324219 C 263.890625 184.179688 263.933594 184.183594 263.941406 184.035156 C 263.953125 183.886719 263.941406 183.464844 263.972656 183.410156 C 264.003906 183.355469 264.011719 183.136719 264.019531 182.910156 C 264.027344 182.683594 263.992188 182.214844 263.96875 182.113281 C 263.941406 182.011719 263.914062 181.835938 263.90625 181.714844 C 263.894531 181.589844 263.894531 180.824219 263.925781 180.566406 C 263.957031 180.3125 263.925781 180.277344 263.949219 180.222656 C 263.96875 180.167969 263.960938 180.136719 263.933594 180.085938 C 263.910156 180.035156 263.929688 180.011719 263.960938 179.960938 C 263.988281 179.910156 264.054688 179.816406 264.035156 179.757812 C 264.019531 179.699219 264.015625 179.683594 264.042969 179.628906 C 264.066406 179.574219 264.09375 179.527344 264.078125 179.476562 C 264.066406 179.425781 264.09375 179.398438 264.097656 179.332031 C 264.101562 179.261719 264.117188 179.03125 264.109375 178.941406 C 264.101562 178.851562 264.125 178.820312 264.109375 178.6875 C 264.09375 178.554688 264.0625 177.9375 264.089844 177.742188 C 264.113281 177.546875 264.300781 176.570312 264.34375 176.304688 C 264.386719 176.039062 264.417969 175.714844 264.398438 175.664062 C 264.382812 175.613281 264.386719 175.441406 264.433594 175.46875 C 264.480469 175.5 264.476562 175.84375 264.53125 176.054688 C 264.585938 176.261719 264.632812 176.667969 264.621094 176.914062 C 264.609375 177.160156 264.613281 177.59375 264.566406 177.851562 C 264.519531 178.113281 264.503906 178.539062 264.53125 178.640625 C 264.558594 178.742188 264.574219 179.039062 264.5625 179.140625 C 264.546875 179.238281 264.488281 179.304688 264.527344 179.386719 C 264.566406 179.46875 264.515625 179.582031 264.515625 179.617188 C 264.515625 179.652344 264.515625 179.980469 264.480469 180.214844 C 264.445312 180.449219 264.429688 180.777344 264.417969 181.0625 C 264.402344 181.347656 264.457031 181.523438 264.398438 181.5625 C 264.339844 181.605469 264.191406 181.773438 264.191406 181.921875 C 264.191406 182.070312 264.21875 182.320312 264.191406 182.527344 C 264.160156 182.734375 264.136719 182.855469 264.148438 182.945312 C 264.160156 183.035156 264.210938 183.101562 264.175781 183.1875 C 264.144531 183.273438 264.128906 183.285156 264.128906 183.324219 C 264.128906 183.363281 264.148438 183.324219 264.128906 183.40625 C 264.113281 183.488281 264.125 183.492188 264.128906 183.5625 C 264.136719 183.636719 264.121094 183.726562 264.207031 183.898438 C 264.292969 184.074219 264.402344 184.300781 264.398438 184.453125 C 264.394531 184.605469 264.402344 184.679688 264.449219 184.691406 C 264.496094 184.707031 264.710938 184.699219 264.828125 184.652344 C 264.949219 184.605469 264.988281 184.570312 264.992188 184.511719 C 264.996094 184.457031 264.980469 184.300781 265.042969 184.292969 C 265.105469 184.285156 265.371094 184.300781 265.449219 184.148438 C 265.523438 183.992188 265.5625 183.792969 265.503906 183.722656 C 265.441406 183.648438 265.285156 183.558594 265.28125 183.507812 C 265.277344 183.457031 265.226562 183.445312 265.25 183.425781 C 265.277344 183.410156 265.292969 183.371094 265.292969 183.257812 C 265.292969 183.140625 265.257812 182.914062 265.324219 182.773438 C 265.390625 182.632812 265.667969 182.164062 265.746094 181.746094 C 265.824219 181.328125 265.890625 180.855469 265.949219 180.636719 C 266.011719 180.414062 266.109375 179.78125 266.109375 179.480469 C 266.109375 179.175781 266.171875 179.007812 266.179688 178.863281 C 266.1875 178.71875 266.128906 178.652344 266.175781 178.566406 C 266.222656 178.484375 266.230469 178.316406 266.226562 178.269531 C 266.222656 178.222656 266.261719 177.640625 266.300781 177.421875 C 266.339844 177.203125 266.488281 176.550781 266.527344 176.402344 C 266.5625 176.253906 266.878906 175.402344 266.890625 175.058594 C 266.90625 174.71875 266.914062 174.339844 266.890625 174.132812 C 266.871094 173.921875 266.859375 173.828125 266.886719 173.824219 C 266.917969 173.820312 267.027344 173.75 267.007812 173.652344 C 266.984375 173.554688 266.835938 172.9375 266.792969 172.617188 C 266.75 172.296875 266.648438 171.910156 266.648438 171.910156 C 266.648438 171.910156 267.015625 171.851562 267.179688 171.609375 C 267.339844 171.363281 267.476562 171.117188 267.574219 171.035156 C 267.671875 170.957031 267.78125 170.777344 267.796875 170.667969 C 267.808594 170.554688 267.960938 170.449219 267.960938 170.328125 C 267.960938 170.210938 267.90625 170.203125 267.894531 170.078125 Z M 266.269531 169.734375 C 266.214844 169.851562 266.175781 170.230469 266.164062 170.222656 C 266.105469 170.1875 266.195312 169.816406 266.210938 169.425781 C 266.226562 169.035156 266.285156 169.292969 266.285156 169.292969 C 266.285156 169.292969 266.28125 169.410156 266.308594 169.484375 C 266.335938 169.5625 266.324219 169.613281 266.269531 169.734375 " fill-opacity="1" fill-rule="nonzero"/></g><g clip-path="url(#cd31df7596)"><path fill="#ffffff" d="M 259.636719 175.640625 C 259.621094 175.554688 259.59375 175.460938 259.589844 175.421875 C 259.585938 175.382812 259.539062 175.289062 259.550781 175.21875 C 259.5625 175.144531 259.546875 175.015625 259.5 174.996094 C 259.453125 174.976562 259.386719 174.824219 259.320312 174.914062 C 259.257812 175.003906 259.269531 175.082031 259.152344 174.976562 C 259.03125 174.867188 259 174.769531 258.933594 174.761719 C 258.867188 174.753906 258.820312 174.820312 258.8125 174.902344 C 258.808594 174.984375 258.871094 175.015625 258.8125 175.035156 C 258.757812 175.050781 258.625 175.179688 258.578125 175.246094 C 258.53125 175.316406 258.390625 175.472656 258.375 175.503906 C 258.359375 175.535156 258.15625 175.894531 258.078125 175.878906 C 257.996094 175.863281 257.808594 175.800781 257.742188 175.777344 C 257.671875 175.75 257.433594 175.664062 257.382812 175.558594 C 257.332031 175.453125 257.199219 175.285156 257.113281 175.277344 C 257.027344 175.269531 256.886719 175.3125 256.835938 175.308594 C 256.785156 175.304688 256.683594 175.289062 256.652344 175.289062 C 256.625 175.289062 256.589844 175.1875 256.652344 175.152344 C 256.71875 175.121094 256.746094 174.996094 256.71875 174.953125 C 256.6875 174.910156 256.761719 174.765625 256.691406 174.675781 C 256.625 174.585938 256.472656 174.519531 256.351562 174.484375 C 256.226562 174.449219 256.164062 174.523438 256.164062 174.433594 C 256.164062 174.433594 256.34375 173.96875 256.296875 173.304688 C 256.25 172.640625 256.03125 172.371094 255.703125 172.183594 C 255.375 171.996094 255.152344 171.988281 255.058594 172.019531 C 254.964844 172.054688 254.855469 172.054688 254.78125 172.054688 C 254.710938 172.054688 254.632812 172.160156 254.484375 172.15625 C 254.335938 172.152344 254.273438 172.140625 254.195312 172.222656 C 254.113281 172.300781 253.953125 172.441406 253.890625 172.511719 C 253.832031 172.578125 253.589844 172.875 253.59375 173.121094 C 253.597656 173.367188 253.636719 173.636719 253.757812 173.953125 C 253.882812 174.265625 254.007812 174.640625 254.0625 174.679688 C 254.117188 174.71875 254.082031 174.78125 254.074219 174.769531 C 254.066406 174.757812 253.929688 174.710938 253.875 174.75 C 253.820312 174.789062 253.722656 174.859375 253.734375 174.957031 C 253.746094 175.054688 253.757812 175.078125 253.734375 175.117188 C 253.707031 175.152344 253.59375 175.144531 253.652344 175.234375 C 253.667969 175.257812 253.683594 175.277344 253.699219 175.296875 C 253.660156 175.300781 253.617188 175.304688 253.589844 175.308594 C 253.539062 175.3125 253.398438 175.269531 253.3125 175.277344 C 253.230469 175.285156 253.097656 175.453125 253.046875 175.558594 C 252.996094 175.664062 252.753906 175.75 252.6875 175.777344 C 252.621094 175.800781 252.433594 175.863281 252.351562 175.878906 C 252.269531 175.894531 252.070312 175.535156 252.050781 175.503906 C 252.035156 175.472656 251.894531 175.316406 251.847656 175.246094 C 251.800781 175.179688 251.667969 175.050781 251.613281 175.035156 C 251.558594 175.015625 251.617188 174.984375 251.613281 174.902344 C 251.609375 174.820312 251.5625 174.753906 251.496094 174.761719 C 251.425781 174.769531 251.394531 174.867188 251.277344 174.976562 C 251.15625 175.082031 251.171875 175.003906 251.105469 174.914062 C 251.042969 174.824219 250.972656 174.976562 250.925781 174.996094 C 250.878906 175.015625 250.863281 175.144531 250.875 175.21875 C 250.890625 175.289062 250.839844 175.382812 250.835938 175.421875 C 250.832031 175.460938 250.808594 175.554688 250.789062 175.640625 C 250.773438 175.726562 250.835938 175.789062 250.847656 175.820312 C 250.855469 175.847656 251.144531 176.242188 251.351562 176.535156 C 251.5625 176.828125 251.855469 177.128906 252.09375 177.265625 C 252.332031 177.398438 252.558594 177.316406 252.742188 177.269531 C 252.925781 177.222656 253.070312 177.222656 253.078125 177.199219 C 253.058594 177.246094 253.214844 177.546875 253.230469 177.628906 C 253.273438 177.863281 253.300781 178.128906 253.316406 178.367188 C 253.328125 178.359375 253.335938 178.355469 253.351562 178.355469 C 253.246094 178.355469 253.179688 179.550781 253.132812 179.652344 C 253.066406 179.796875 253.023438 179.992188 253.042969 180.132812 C 253.066406 180.273438 253.023438 180.402344 253.011719 180.5625 C 253.003906 180.722656 253.023438 180.984375 253.121094 181.070312 C 253.21875 181.15625 253.34375 181.199219 253.378906 181.171875 C 253.417969 181.144531 253.496094 181.175781 253.507812 181.203125 C 253.519531 181.226562 253.484375 181.628906 253.503906 181.734375 C 253.523438 181.839844 253.613281 181.898438 253.621094 182.046875 C 253.632812 182.195312 253.683594 182.640625 253.691406 182.761719 C 253.699219 182.882812 253.878906 183.148438 253.820312 183.253906 C 253.757812 183.355469 253.695312 183.472656 253.742188 183.53125 C 253.789062 183.59375 253.847656 183.707031 253.820312 183.792969 C 253.789062 183.878906 253.753906 183.886719 253.777344 183.953125 C 253.796875 184.023438 253.800781 184.039062 253.777344 184.101562 C 253.75 184.160156 253.753906 184.320312 253.78125 184.371094 C 253.804688 184.425781 253.78125 184.480469 253.792969 184.566406 C 253.804688 184.648438 253.84375 184.921875 253.839844 185.042969 C 253.835938 185.160156 253.875 185.507812 253.839844 185.582031 C 253.804688 185.660156 253.828125 185.726562 253.796875 185.761719 C 253.769531 185.796875 253.84375 186.082031 253.820312 186.121094 C 253.792969 186.160156 253.78125 186.3125 253.820312 186.328125 C 253.859375 186.347656 253.941406 186.464844 253.871094 186.523438 C 253.796875 186.585938 253.710938 186.65625 253.742188 186.867188 C 253.773438 187.074219 253.90625 187.128906 253.914062 187.171875 C 253.921875 187.214844 253.980469 187.25 253.988281 187.296875 C 253.996094 187.34375 253.960938 187.449219 254.144531 187.472656 C 254.328125 187.492188 254.6875 187.523438 254.722656 187.441406 C 254.757812 187.359375 254.832031 187.121094 254.832031 187.070312 C 254.832031 187.019531 254.914062 186.820312 254.914062 186.765625 C 254.914062 186.707031 254.882812 186.351562 254.9375 186.332031 C 254.988281 186.316406 255.050781 186.316406 255.054688 186.195312 C 255.058594 186.078125 255.054688 186.019531 255.066406 185.941406 C 255.082031 185.863281 255.058594 185.625 255.03125 185.589844 C 255 185.558594 254.957031 185.484375 254.953125 185.398438 C 254.949219 185.316406 255 185.011719 255.007812 184.875 C 255.015625 184.738281 254.984375 184.578125 254.976562 184.457031 C 254.972656 184.339844 254.972656 184.230469 254.996094 184.082031 C 255.015625 183.933594 254.996094 183.863281 254.996094 183.828125 C 254.996094 183.792969 255 183.730469 255.03125 183.65625 C 255.058594 183.585938 255.101562 183.59375 255.09375 183.410156 C 255.085938 183.226562 255.066406 183.082031 255.089844 182.976562 C 255.109375 182.867188 255.160156 182.777344 255.113281 182.722656 C 255.066406 182.667969 255.101562 182.558594 255.105469 182.488281 C 255.109375 182.421875 255.121094 182.257812 255.144531 182.183594 C 255.171875 182.105469 255.203125 181.875 255.226562 181.996094 C 255.246094 182.113281 255.296875 182.382812 255.328125 182.519531 C 255.359375 182.65625 255.410156 182.75 255.40625 182.871094 C 255.398438 182.996094 255.472656 183.128906 255.539062 183.285156 C 255.609375 183.445312 255.71875 183.710938 255.707031 183.808594 C 255.695312 183.90625 255.65625 183.992188 255.714844 184.136719 C 255.777344 184.285156 255.871094 184.378906 255.902344 184.476562 C 255.9375 184.574219 255.984375 184.6875 255.980469 184.753906 C 255.976562 184.816406 256.035156 185.390625 256.257812 185.4375 C 256.476562 185.484375 256.757812 185.402344 256.773438 185.175781 C 256.789062 184.945312 256.882812 184.625 256.949219 184.472656 C 257.011719 184.316406 257.199219 183.949219 257.035156 183.574219 C 256.875 183.199219 256.800781 183.148438 256.71875 183.195312 C 256.71875 183.195312 256.730469 183.0625 256.695312 182.929688 C 256.660156 182.792969 256.640625 182.667969 256.628906 182.652344 C 256.613281 182.632812 256.621094 182.28125 256.613281 182.210938 C 256.609375 182.144531 256.539062 182.148438 256.550781 182.054688 C 256.5625 181.960938 256.542969 181.730469 256.585938 181.707031 C 256.628906 181.6875 256.667969 181.632812 256.648438 181.539062 C 256.632812 181.445312 256.605469 181.410156 256.628906 181.339844 C 256.648438 181.265625 256.671875 181.21875 256.671875 181.140625 C 256.671875 181.066406 256.679688 180.957031 256.71875 180.945312 C 256.757812 180.933594 256.792969 180.890625 256.851562 180.875 C 256.90625 180.855469 257.140625 180.734375 257.15625 180.476562 C 257.15625 180.457031 257.160156 180.4375 257.160156 180.414062 C 257.179688 180.164062 257.203125 179.832031 257.15625 179.621094 C 257.105469 179.390625 257 179.28125 257.003906 179.148438 C 257.007812 179.015625 257.03125 178.898438 256.984375 178.769531 C 256.9375 178.636719 256.992188 178.375 257.046875 178.234375 C 257.101562 178.09375 257.199219 177.789062 257.234375 177.570312 C 257.265625 177.351562 257.339844 177.179688 257.347656 177.199219 C 257.355469 177.222656 257.5 177.222656 257.683594 177.269531 C 257.867188 177.316406 258.09375 177.398438 258.332031 177.265625 C 258.570312 177.128906 258.867188 176.828125 259.074219 176.535156 C 259.285156 176.242188 259.574219 175.847656 259.582031 175.820312 C 259.589844 175.789062 259.652344 175.726562 259.636719 175.640625 " fill-opacity="1" fill-rule="nonzero"/></g><g clip-path="url(#e70d908532)"><path fill="#ffffff" d="M 252.507812 174.886719 C 252.5 174.835938 252.472656 174.800781 252.453125 174.722656 C 252.429688 174.648438 252.445312 174.359375 252.429688 174.152344 C 252.417969 173.945312 252.351562 173.449219 252.335938 173.179688 C 252.320312 172.910156 252.234375 172.777344 252.230469 172.601562 C 252.222656 172.429688 252.132812 172.234375 252.121094 172.109375 C 252.113281 171.988281 252.0625 171.757812 251.984375 171.621094 C 251.90625 171.484375 251.777344 171.066406 251.742188 170.898438 C 251.710938 170.726562 251.699219 170.441406 251.511719 170.027344 C 251.324219 169.613281 250.894531 168.910156 250.871094 168.824219 C 250.851562 168.738281 250.621094 168.148438 250.542969 167.957031 C 250.460938 167.765625 250.4375 167.476562 250.089844 167.273438 C 249.746094 167.074219 249.792969 167.035156 249.511719 166.863281 C 249.230469 166.695312 248.75 166.484375 248.699219 166.453125 C 248.648438 166.421875 248.335938 166.304688 248.273438 166.183594 C 248.214844 166.058594 248.007812 165.691406 247.851562 165.589844 C 247.851562 165.589844 247.917969 165.515625 247.933594 165.484375 C 247.949219 165.453125 247.980469 165.542969 248.03125 165.484375 C 248.078125 165.425781 248.238281 165.160156 248.285156 165.101562 C 248.328125 165.039062 248.34375 164.945312 248.339844 164.855469 C 248.332031 164.765625 248.347656 164.734375 248.3125 164.734375 C 248.28125 164.734375 248.367188 164.496094 248.367188 164.445312 C 248.367188 164.394531 248.511719 163.789062 248.34375 163.574219 C 248.179688 163.359375 247.90625 163.101562 247.542969 162.988281 C 247.179688 162.875 246.566406 162.988281 246.292969 163.253906 C 246.015625 163.523438 245.882812 163.832031 245.871094 164.003906 C 245.859375 164.175781 245.867188 164.285156 245.847656 164.363281 C 245.832031 164.4375 245.871094 164.53125 245.828125 164.667969 C 245.78125 164.804688 245.773438 164.882812 245.773438 165.046875 C 245.773438 165.214844 245.773438 165.605469 245.804688 165.671875 C 245.804688 165.671875 245.78125 165.765625 245.734375 165.765625 C 245.691406 165.765625 245.578125 165.820312 245.519531 165.898438 C 245.464844 165.976562 245.425781 166.039062 245.34375 166.0625 C 245.261719 166.089844 244.707031 166.335938 244.488281 166.398438 C 244.265625 166.464844 243.800781 166.726562 243.675781 166.878906 C 243.554688 167.027344 243.488281 167.160156 243.449219 167.257812 C 243.414062 167.355469 243.308594 167.625 243.273438 167.726562 C 243.234375 167.824219 243.109375 168.363281 243.082031 168.464844 C 243.058594 168.566406 242.988281 168.746094 242.859375 169.035156 C 242.730469 169.320312 242.6875 169.683594 242.640625 169.742188 C 242.59375 169.800781 242.519531 170.289062 242.488281 170.359375 C 242.453125 170.433594 242.359375 170.433594 242.390625 170.570312 C 242.425781 170.703125 242.46875 170.679688 242.460938 170.769531 C 242.457031 170.863281 242.460938 170.96875 242.496094 171.035156 C 242.53125 171.097656 242.609375 171.203125 242.621094 171.332031 C 242.632812 171.460938 242.625 171.480469 242.65625 171.582031 C 242.6875 171.683594 242.683594 171.949219 242.769531 172 C 242.859375 172.054688 243.046875 172.324219 243.148438 172.378906 C 243.25 172.433594 243.402344 172.589844 243.460938 172.695312 C 243.519531 172.800781 243.601562 172.914062 243.746094 173.027344 C 243.890625 173.140625 243.949219 173.117188 244 173.132812 C 244.054688 173.148438 244.046875 173.214844 244.09375 173.21875 C 244.136719 173.222656 244.222656 173.214844 244.207031 173.21875 C 244.191406 173.222656 244.183594 173.335938 244.191406 173.40625 C 244.195312 173.476562 244.179688 173.609375 244.210938 173.757812 C 244.242188 173.902344 244.28125 174.0625 244.28125 174.121094 C 244.28125 174.179688 244.285156 174.421875 244.265625 174.445312 C 244.25 174.46875 244.265625 174.5625 244.285156 174.570312 C 244.308594 174.578125 244.320312 174.609375 244.308594 174.644531 C 244.300781 174.675781 244.269531 174.785156 244.28125 174.835938 C 244.292969 174.886719 244.335938 175.011719 244.339844 175.070312 C 244.34375 175.128906 244.339844 175.535156 244.414062 175.960938 C 244.488281 176.382812 244.523438 176.828125 244.546875 176.917969 C 244.566406 177.011719 244.648438 177.367188 244.640625 177.460938 C 244.632812 177.554688 244.703125 177.769531 244.710938 177.84375 C 244.71875 177.917969 244.773438 178.21875 244.730469 178.28125 C 244.6875 178.34375 244.683594 178.386719 244.683594 178.476562 C 244.683594 178.570312 244.734375 178.597656 244.667969 178.664062 C 244.601562 178.730469 244.40625 178.847656 244.433594 179.078125 C 244.460938 179.308594 244.546875 179.742188 244.527344 179.914062 C 244.511719 180.082031 244.574219 180.550781 244.574219 180.753906 C 244.574219 180.953125 244.691406 181.546875 244.6875 181.734375 C 244.679688 181.921875 244.757812 182.398438 244.722656 182.511719 C 244.6875 182.625 244.765625 183.265625 244.808594 183.433594 C 244.851562 183.597656 245.039062 184.132812 245.019531 184.226562 C 245 184.316406 245.003906 184.800781 245.15625 184.777344 C 245.308594 184.757812 245.34375 184.707031 245.324219 184.777344 C 245.300781 184.851562 245.199219 185.089844 245.160156 185.152344 C 245.121094 185.210938 245.113281 185.367188 245.15625 185.527344 C 245.199219 185.6875 245.390625 185.691406 245.5 185.679688 C 245.609375 185.667969 246.394531 185.726562 246.4375 185.449219 C 246.480469 185.167969 246.433594 184.941406 246.453125 184.789062 C 246.476562 184.632812 246.484375 184.5625 246.480469 184.527344 C 246.480469 184.492188 246.507812 184.453125 246.503906 184.390625 C 246.496094 184.332031 246.589844 184.09375 246.589844 183.855469 C 246.589844 183.617188 246.621094 182.640625 246.546875 182.191406 C 246.472656 181.746094 246.46875 181.125 246.453125 181.039062 C 246.4375 180.953125 246.503906 180.585938 246.433594 180.410156 C 246.363281 180.234375 246.320312 180.199219 246.34375 180.140625 C 246.367188 180.082031 246.492188 179.914062 246.488281 179.78125 C 246.484375 179.644531 246.480469 179.570312 246.492188 179.527344 C 246.507812 179.484375 246.542969 179.402344 246.515625 179.21875 C 246.488281 179.035156 246.40625 178.789062 246.460938 178.617188 C 246.515625 178.445312 246.507812 178.316406 246.484375 178.273438 C 246.460938 178.226562 246.453125 178.152344 246.460938 178.046875 C 246.464844 177.9375 246.503906 177.308594 246.554688 177.097656 C 246.605469 176.886719 246.722656 176.617188 246.75 176.507812 C 246.777344 176.402344 246.746094 176.339844 246.78125 176.265625 C 246.816406 176.1875 246.871094 176.074219 246.847656 176.304688 C 246.828125 176.539062 246.882812 177.09375 246.875 177.265625 C 246.871094 177.4375 246.917969 178 246.957031 178.378906 C 246.996094 178.757812 247.039062 179.339844 247.042969 179.75 C 247.042969 180.160156 247.042969 180.523438 247.050781 180.644531 C 247.058594 180.769531 247.085938 180.828125 247.066406 180.921875 C 247.042969 181.011719 247.070312 181.097656 247.042969 181.164062 C 247.015625 181.234375 247.113281 181.601562 247.050781 181.75 C 246.988281 181.898438 247.046875 182.03125 247.007812 182.121094 C 246.96875 182.214844 246.9375 182.601562 246.917969 182.691406 C 246.902344 182.785156 246.746094 183.535156 246.71875 183.984375 C 246.691406 184.429688 246.707031 184.839844 246.71875 185.085938 C 246.730469 185.335938 246.75 185.394531 246.796875 185.464844 C 246.84375 185.53125 246.890625 185.523438 246.855469 185.644531 C 246.816406 185.761719 246.789062 185.851562 246.785156 185.941406 C 246.777344 186.027344 246.796875 186.207031 246.785156 186.308594 C 246.773438 186.410156 246.75 186.710938 246.84375 186.765625 C 246.933594 186.820312 247.238281 186.867188 247.546875 186.789062 C 247.855469 186.714844 247.972656 186.542969 248.285156 186.488281 C 248.601562 186.433594 249.097656 186.15625 249.121094 185.925781 C 249.144531 185.695312 249.15625 185.492188 248.945312 185.421875 C 248.734375 185.347656 248.609375 185.421875 248.511719 185.425781 C 248.414062 185.429688 248.25 185.460938 248.269531 185.359375 C 248.292969 185.257812 248.308594 185.199219 248.402344 185.09375 C 248.496094 184.984375 248.746094 184.402344 248.746094 184.046875 C 248.746094 183.691406 248.730469 182.785156 248.753906 182.546875 C 248.777344 182.308594 248.859375 181.65625 248.917969 181.515625 C 248.980469 181.378906 249.097656 181.109375 249.058594 180.898438 C 249.023438 180.6875 248.992188 180.457031 249.070312 180.234375 C 249.144531 180.007812 249.316406 178.890625 249.308594 178.753906 C 249.300781 178.609375 249.363281 177.167969 249.417969 176.996094 C 249.472656 176.824219 249.441406 175.886719 249.445312 175.734375 C 249.449219 175.578125 249.382812 174.832031 249.371094 174.796875 C 249.359375 174.761719 249.503906 174.804688 249.515625 174.6875 C 249.527344 174.570312 249.476562 174.089844 249.480469 173.859375 C 249.484375 173.632812 249.425781 173.433594 249.515625 173.410156 C 249.605469 173.390625 249.699219 173.324219 249.703125 173.144531 C 249.707031 172.964844 249.5625 172.445312 249.542969 172.292969 C 249.523438 172.144531 249.550781 171.671875 249.542969 171.507812 C 249.539062 171.347656 249.492188 171.285156 249.484375 171.175781 C 249.472656 171.066406 249.511719 171.03125 249.503906 170.820312 C 249.496094 170.609375 249.550781 170.402344 249.480469 170.285156 C 249.410156 170.164062 249.347656 169.839844 249.417969 170.050781 C 249.488281 170.257812 249.609375 170.429688 249.632812 170.527344 C 249.652344 170.625 249.835938 171.035156 249.898438 171.277344 C 249.960938 171.519531 250.082031 171.808594 250.167969 171.988281 C 250.253906 172.167969 250.351562 172.335938 250.378906 172.496094 C 250.40625 172.660156 250.6875 173.074219 250.769531 173.246094 C 250.851562 173.414062 251.113281 173.699219 251.152344 173.777344 C 251.195312 173.855469 251.21875 173.960938 251.242188 174.089844 C 251.265625 174.21875 251.300781 174.316406 251.28125 174.371094 C 251.265625 174.425781 251.191406 174.476562 251.21875 174.542969 C 251.246094 174.613281 251.183594 174.664062 251.128906 174.796875 C 251.074219 174.929688 251.050781 175.042969 250.992188 175.109375 C 250.933594 175.175781 250.859375 175.296875 250.914062 175.351562 C 250.96875 175.410156 251.167969 175.339844 251.230469 175.242188 C 251.289062 175.148438 251.429688 174.875 251.484375 174.90625 C 251.542969 174.9375 251.613281 174.917969 251.636719 174.917969 C 251.65625 174.917969 251.695312 174.921875 251.679688 175.007812 C 251.664062 175.09375 251.628906 175.242188 251.59375 175.289062 C 251.558594 175.335938 251.527344 175.410156 251.480469 175.429688 C 251.429688 175.453125 251.335938 175.480469 251.300781 175.5625 C 251.269531 175.644531 251.261719 175.671875 251.300781 175.675781 C 251.335938 175.683594 251.246094 175.773438 251.316406 175.800781 C 251.386719 175.828125 251.4375 175.761719 251.472656 175.746094 C 251.511719 175.730469 251.65625 175.746094 251.683594 175.742188 C 251.710938 175.738281 251.953125 175.667969 252.105469 175.605469 C 252.253906 175.539062 252.359375 175.390625 252.386719 175.316406 C 252.417969 175.242188 252.429688 175.167969 252.460938 175.113281 C 252.492188 175.058594 252.515625 174.941406 252.507812 174.886719 Z M 244.203125 171.339844 C 244.195312 171.324219 244.160156 171.203125 244.144531 171.164062 C 244.125 171.121094 244.109375 171.074219 244.105469 171.011719 C 244.101562 170.945312 244.117188 170.941406 244.125 170.828125 C 244.136719 170.714844 244.125 170.566406 244.132812 170.511719 C 244.144531 170.457031 244.109375 170.222656 244.132812 170.335938 C 244.15625 170.453125 244.238281 171.257812 244.238281 171.273438 C 244.261719 171.503906 244.210938 171.359375 244.203125 171.339844 " fill-opacity="1" fill-rule="nonzero"/></g><g fill="#ffffff" fill-opacity="1"><g transform="translate(71.717965, 181.626347)"><g><path d="M 12.828125 0 L 10.09375 0 L 9.09375 -6.046875 L 4.203125 -6.046875 L 3.3125 0 L 0.578125 0 L 4.359375 -23.96875 L 8.671875 -23.96875 Z M 6.46875 -21.96875 L 4.515625 -8.359375 L 8.703125 -8.359375 Z M 6.46875 -21.96875 "/></g></g></g><g fill="#ffffff" fill-opacity="1"><g transform="translate(87.942276, 181.626347)"><g><path d="M 4.625 0 L 2.125 0 L 2.125 -23.96875 L 5.234375 -23.96875 L 10.0625 -6.171875 L 10.0625 -23.96875 L 12.5625 -23.96875 L 12.5625 0 L 9.59375 0 L 4.625 -18.453125 Z M 4.625 0 "/></g></g></g><g fill="#ffffff" fill-opacity="1"><g transform="translate(105.438298, 181.626347)"><g><path d="M 12.828125 0 L 10.09375 0 L 9.09375 -6.046875 L 4.203125 -6.046875 L 3.3125 0 L 0.578125 0 L 4.359375 -23.96875 L 8.671875 -23.96875 Z M 6.46875 -21.96875 L 4.515625 -8.359375 L 8.703125 -8.359375 Z M 6.46875 -21.96875 "/></g></g></g><g fill="#ffffff" fill-opacity="1"><g transform="translate(121.662609, 181.626347)"><g><path d="M 4.625 0 L 2.125 0 L 2.125 -23.96875 L 5.234375 -23.96875 L 10.0625 -6.171875 L 10.0625 -23.96875 L 12.5625 -23.96875 L 12.5625 0 L 9.59375 0 L 4.625 -18.453125 Z M 4.625 0 "/></g></g></g><g fill="#ffffff" fill-opacity="1"><g transform="translate(139.158632, 181.626347)"><g/></g></g><g fill="#ffffff" fill-opacity="1"><g transform="translate(147.059006, 181.626347)"><g><path d="M 4.703125 0 C 2.648438 0 1.625 -1.023438 1.625 -3.078125 L 1.625 -6.78125 L 4.359375 -6.78125 L 4.359375 -3.5 C 4.359375 -3.019531 4.429688 -2.707031 4.578125 -2.5625 C 4.734375 -2.414062 5.054688 -2.34375 5.546875 -2.34375 L 7.28125 -2.34375 C 7.769531 -2.34375 8.09375 -2.414062 8.25 -2.5625 C 8.40625 -2.707031 8.484375 -3.019531 8.484375 -3.5 L 8.484375 -9.984375 C 8.484375 -10.492188 8.410156 -10.816406 8.265625 -10.953125 C 8.117188 -11.097656 7.789062 -11.171875 7.28125 -11.171875 L 4.625 -11.171875 C 2.570312 -11.171875 1.546875 -12.195312 1.546875 -14.25 L 1.546875 -20.890625 C 1.546875 -22.941406 2.570312 -23.96875 4.625 -23.96875 L 8.09375 -23.96875 C 10.144531 -23.96875 11.171875 -22.941406 11.171875 -20.890625 L 11.171875 -17.21875 L 8.4375 -17.21875 L 8.4375 -20.453125 C 8.4375 -20.972656 8.363281 -21.300781 8.21875 -21.4375 C 8.082031 -21.582031 7.757812 -21.65625 7.25 -21.65625 L 5.46875 -21.65625 C 4.976562 -21.65625 4.65625 -21.582031 4.5 -21.4375 C 4.351562 -21.300781 4.28125 -20.972656 4.28125 -20.453125 L 4.28125 -14.6875 C 4.28125 -14.195312 4.351562 -13.878906 4.5 -13.734375 C 4.65625 -13.597656 4.976562 -13.53125 5.46875 -13.53125 L 8.125 -13.53125 C 10.1875 -13.53125 11.21875 -12.5 11.21875 -10.4375 L 11.21875 -3.078125 C 11.21875 -1.023438 10.1875 0 8.125 0 Z M 4.703125 0 "/></g></g></g><g fill="#ffffff" fill-opacity="1"><g transform="translate(162.628179, 181.626347)"><g><path d="M 4.8125 0 L 2.125 0 L 2.125 -23.96875 L 4.8125 -23.96875 Z M 13.03125 0 L 10.0625 0 L 5.09375 -11.875 L 10.140625 -23.96875 L 13.0625 -23.96875 L 7.9375 -11.875 Z M 13.03125 0 "/></g></g></g><g fill="#ffffff" fill-opacity="1"><g transform="translate(178.891016, 181.626347)"><g><path d="M 9.515625 -23.96875 L 12.296875 -23.96875 L 7.703125 -7.46875 L 7.703125 0 L 4.96875 0 L 4.96875 -7.328125 L 0.1875 -23.96875 L 2.96875 -23.96875 L 6.3125 -10.0625 Z M 9.515625 -23.96875 "/></g></g></g></svg>